<mxfile host="app.diagrams.net" modified="2022-12-27T15:13:57.343Z" agent="5.0 (Windows NT 10.0; Win64; x64) AppleWebKit/537.36 (KHTML, like Gecko) Chrome/108.0.0.0 Safari/537.36 Edg/108.0.1462.54" etag="MUu4zIk2YiIaVrRF107B" version="20.5.2" type="github">
  <diagram id="mwToAvXhce5DI-8wnwoA" name="Page-1">
    <mxGraphModel dx="1422" dy="762" grid="1" gridSize="10" guides="1" tooltips="1" connect="1" arrows="1" fold="1" page="1" pageScale="1" pageWidth="850" pageHeight="1100" math="0" shadow="0">
      <root>
        <mxCell id="0" />
        <mxCell id="1" parent="0" />
        <mxCell id="2sTp-znWYyKhSrJxXBus-6" value="" style="rounded=0;whiteSpace=wrap;html=1;dashed=1;fillColor=none;strokeColor=#F0A30A;fontColor=#000000;" vertex="1" parent="1">
          <mxGeometry x="325" y="60" width="230" height="340" as="geometry" />
        </mxCell>
        <mxCell id="2sTp-znWYyKhSrJxXBus-1" value="Kafka Broker 1" style="rounded=0;whiteSpace=wrap;html=1;fillColor=#f0a30a;strokeColor=#BD7000;fontColor=#000000;" vertex="1" parent="1">
          <mxGeometry x="380" y="120" width="120" height="60" as="geometry" />
        </mxCell>
        <mxCell id="2sTp-znWYyKhSrJxXBus-4" value="Kafka Broker 2" style="rounded=0;whiteSpace=wrap;html=1;fillColor=#f0a30a;strokeColor=#BD7000;fontColor=#000000;" vertex="1" parent="1">
          <mxGeometry x="380" y="210" width="120" height="60" as="geometry" />
        </mxCell>
        <mxCell id="2sTp-znWYyKhSrJxXBus-5" value="Kafka Broker 3" style="rounded=0;whiteSpace=wrap;html=1;fillColor=#f0a30a;strokeColor=#D79B00;fontColor=#000000;" vertex="1" parent="1">
          <mxGeometry x="380" y="300" width="120" height="60" as="geometry" />
        </mxCell>
        <mxCell id="2sTp-znWYyKhSrJxXBus-7" value="Zookeeper 1" style="rounded=0;whiteSpace=wrap;html=1;fillColor=#fff2cc;strokeColor=#d6b656;" vertex="1" parent="1">
          <mxGeometry x="180" y="480" width="120" height="60" as="geometry" />
        </mxCell>
        <mxCell id="2sTp-znWYyKhSrJxXBus-8" value="Zookeeper 2" style="rounded=0;whiteSpace=wrap;html=1;fillColor=#fff2cc;strokeColor=#d6b656;" vertex="1" parent="1">
          <mxGeometry x="380" y="480" width="120" height="60" as="geometry" />
        </mxCell>
        <mxCell id="2sTp-znWYyKhSrJxXBus-9" value="Zookeeper 3" style="rounded=0;whiteSpace=wrap;html=1;fillColor=#fff2cc;strokeColor=#d6b656;" vertex="1" parent="1">
          <mxGeometry x="580" y="490" width="120" height="60" as="geometry" />
        </mxCell>
        <mxCell id="2sTp-znWYyKhSrJxXBus-10" value="" style="rounded=0;whiteSpace=wrap;html=1;dashed=1;strokeColor=#D79B00;fillColor=none;" vertex="1" parent="1">
          <mxGeometry x="150" y="440" width="590" height="140" as="geometry" />
        </mxCell>
      </root>
    </mxGraphModel>
  </diagram>
</mxfile>
